<svg width="256" height="85" viewBox="0 0 256 85" fill="none" xmlns="http://www.w3.org/2000/svg">
<path d="M152.979 41.4162C152.072 43.5013 150.556 45.2682 148.625 46.4882C146.695 47.7082 144.44 48.3251 142.152 48.2591C135.275 48.2591 130.087 43.0041 130.087 36.0415C130.087 29.079 135.275 23.8302 142.152 23.8302C147.023 23.8302 151.043 26.3506 152.903 30.5723L153.259 31.3788H157.869L157.196 29.5641C154.859 23.3199 149.099 19.4385 142.152 19.4385C132.716 19.4385 125.598 26.5775 125.598 36.0415C125.598 45.5056 132.722 52.6446 142.152 52.6446C145.427 52.71 148.642 51.765 151.353 49.94C154.063 48.1149 156.136 45.4999 157.285 42.4559L157.99 40.6286H153.341L152.979 41.4162Z" fill="#232773"/>
<path d="M188.266 24.7441C186.724 23.0343 184.827 21.6751 182.707 20.7595C180.586 19.8438 178.291 19.3933 175.979 19.4387C166.594 19.4387 159.52 26.5777 159.52 36.0417C159.52 45.5057 166.594 52.6447 175.979 52.6447C178.284 52.6896 180.573 52.2418 182.688 51.3318C184.804 50.4219 186.698 49.071 188.241 47.3708L188.362 52.0777H192.572V20.012H188.413L188.266 24.7441ZM176.074 48.2593C169.197 48.2593 164.009 43.0106 164.009 36.0417C164.009 29.0728 169.197 23.8304 176.074 23.8304C182.951 23.8304 188.082 28.9846 188.082 36.0417C188.082 43.0988 183.034 48.2593 176.074 48.2593Z" fill="#232773"/>
<path d="M210.824 33.1501C205.293 32.2302 202.868 31.5181 202.868 28.563C202.868 25.6078 205.77 23.7365 210.272 23.7365C212.958 23.7365 217.517 24.4296 217.841 29.0923L217.924 30.3525H222.312L222.255 28.9221C221.924 23.0749 217.352 19.4707 210.323 19.4707C203.293 19.4707 198.467 23.2513 198.467 28.6386C198.467 35.5697 204.868 36.6345 210.012 37.5104C215.346 38.3988 218.591 39.2179 218.591 42.9859C218.591 46.2435 215.416 48.348 210.558 48.348C207.7 48.348 202.836 47.5982 202.303 42.6267L202.176 41.4233H197.73L197.857 42.8851C198.385 48.9214 203.223 52.6768 210.488 52.6768C217.981 52.6768 223.01 48.7639 223.01 42.9292C223.01 35.1664 215.974 34.0259 210.824 33.1501Z" fill="#232773"/>
<path d="M243.027 19.4391C241.13 19.4492 239.254 19.8351 237.51 20.5741C235.765 21.3131 234.187 22.3903 232.867 23.7426V9.63477H228.422V52.078H232.867V33.6225C232.891 31.0278 233.936 28.545 235.778 26.7031C237.62 24.8612 240.114 23.8058 242.729 23.7615C248.336 23.7615 251.555 27.3657 251.555 33.6477V52.078H256V33.3516C255.988 24.902 250.901 19.4391 243.027 19.4391Z" fill="#232773"/>
<path d="M135.449 66.9412H127.734C127.732 67.4185 127.824 67.8916 128.007 68.3331C128.19 68.7745 128.46 69.1756 128.8 69.5131C129.14 69.8506 129.544 70.1179 129.989 70.2994C130.434 70.4809 130.911 70.5731 131.392 70.5706C132.076 70.5794 132.749 70.3937 133.331 70.0353C133.913 69.6769 134.379 69.1608 134.675 68.5479H135.195C134.889 69.2993 134.362 69.9417 133.682 70.3913C133.003 70.8409 132.202 71.0768 131.385 71.0683C130.276 71.026 129.227 70.559 128.457 69.7654C127.688 68.9719 127.258 67.9134 127.258 66.812C127.258 65.7107 127.688 64.6522 128.457 63.8586C129.227 63.065 130.276 62.5981 131.385 62.5557C131.935 62.5526 132.479 62.6604 132.985 62.8727C133.49 63.085 133.947 63.3972 134.328 63.7905C134.708 64.1837 135.004 64.6497 135.196 65.1599C135.389 65.6702 135.475 66.2141 135.449 66.7585C135.456 66.79 135.449 66.8782 135.449 66.9412ZM127.747 66.4812H134.973C134.961 65.5498 134.578 64.6611 133.906 64.0102C133.235 63.3592 132.33 62.9993 131.392 63.0094C130.447 63.0007 129.537 63.3592 128.856 64.0081C128.175 64.6569 127.777 65.5447 127.747 66.4812Z" fill="#232773"/>
<path d="M145.419 62.6943V70.8855H144.993L144.936 68.7432C144.602 69.4483 144.068 70.0414 143.399 70.4499C142.73 70.8584 141.956 71.0645 141.171 71.0431C140.061 71.0007 139.012 70.5338 138.242 69.7402C137.473 68.9466 137.043 67.8881 137.043 66.7868C137.043 65.6854 137.473 64.6269 138.242 63.8334C139.012 63.0398 140.061 62.5728 141.171 62.5305C141.956 62.5118 142.73 62.719 143.399 63.127C144.069 63.5351 144.605 64.1267 144.943 64.8303L145.006 62.688L145.419 62.6943ZM144.923 66.7962C144.945 66.3009 144.864 65.8064 144.686 65.3434C144.507 64.8803 144.235 64.4585 143.886 64.1041C143.536 63.7498 143.117 63.4703 142.655 63.2831C142.192 63.0958 141.696 63.0048 141.196 63.0156C140.185 63.0156 139.216 63.4139 138.502 64.1229C137.787 64.8319 137.386 65.7935 137.386 66.7962C137.386 67.7989 137.787 68.7605 138.502 69.4695C139.216 70.1785 140.185 70.5768 141.196 70.5768C141.694 70.5842 142.188 70.4904 142.648 70.3012C143.108 70.1121 143.525 69.8315 143.871 69.4768C144.218 69.1221 144.488 68.7007 144.665 68.2387C144.841 67.7766 144.921 67.2836 144.898 66.7899L144.923 66.7962Z" fill="#232773"/>
<path d="M147.625 68.6801H148.108C148.235 69.9025 149.219 70.6082 150.781 70.6082C152.343 70.6082 153.404 69.8773 153.404 68.7179C153.404 67.2939 152.057 67.0482 150.692 66.8276C149.327 66.6071 147.79 66.3361 147.79 64.7231C147.79 63.4251 148.971 62.543 150.717 62.543C152.464 62.543 153.588 63.4188 153.67 64.8365H153.2C153.118 63.6771 152.203 62.9903 150.711 62.9903C149.219 62.9903 148.266 63.6771 148.266 64.7105C148.266 65.9707 149.46 66.1408 150.806 66.3614C152.254 66.6008 153.886 66.8969 153.886 68.7116C153.886 70.123 152.616 71.0556 150.768 71.0556C148.92 71.0556 147.752 70.1482 147.625 68.6801Z" fill="#232773"/>
<path d="M162.856 62.6943L158.646 71.6165C157.846 73.3115 157.128 73.7903 155.814 73.7903H155.179V73.3367H155.814C156.951 73.3367 157.516 72.9901 158.227 71.4464L158.729 70.4067L154.836 62.6943H155.382L158.957 69.89L162.329 62.6943H162.856Z" fill="#232773"/>
<path d="M179.35 62.6943L176.422 70.8856H176.048L173.228 63.8978L170.434 70.8856H170.06L167.215 62.6943H167.729L170.269 70.0413L173.12 62.959H173.362L176.245 70.0602L178.874 62.6943H179.35Z" fill="#232773"/>
<path d="M188.949 62.6946V70.8858H188.517L188.466 68.7435C188.13 69.4486 187.594 70.0415 186.925 70.4499C186.255 70.8583 185.48 71.0645 184.694 71.0434C183.585 71.001 182.535 70.5341 181.766 69.7405C180.996 68.9469 180.566 67.8884 180.566 66.7871C180.566 65.6858 180.996 64.6272 181.766 63.8337C182.535 63.0401 183.585 62.5731 184.694 62.5308C185.48 62.5097 186.255 62.7159 186.925 63.1243C187.594 63.5326 188.13 64.1255 188.466 64.8306L188.529 62.6883L188.949 62.6946ZM188.447 66.7965C188.469 66.3012 188.388 65.8067 188.209 65.3437C188.031 64.8806 187.759 64.4588 187.409 64.1045C187.06 63.7501 186.641 63.4706 186.178 63.2834C185.715 63.0961 185.219 63.0051 184.719 63.0159C183.709 63.0159 182.74 63.4143 182.025 64.1232C181.311 64.8322 180.909 65.7938 180.909 66.7965C180.909 67.7992 181.311 68.7608 182.025 69.4698C182.74 70.1788 183.709 70.5771 184.719 70.5771C185.22 70.588 185.716 70.4968 186.18 70.3092C186.643 70.1215 187.062 69.8415 187.411 69.4864C187.761 69.1314 188.033 68.7088 188.211 68.245C188.389 67.7812 188.47 67.286 188.447 66.7902V66.7965Z" fill="#232773"/>
<path d="M198.838 62.6943L194.628 71.6165C193.828 73.3115 193.11 73.7903 191.796 73.7903H191.161V73.3367H191.796C192.932 73.3367 193.498 72.9901 194.209 71.4464L194.71 70.4067L190.824 62.6943H191.364L194.952 69.89L198.317 62.6943H198.838Z" fill="#232773"/>
<path d="M203.77 68.6801H204.252C204.385 69.9025 205.37 70.6082 206.932 70.6082C208.494 70.6082 209.548 69.8773 209.548 68.7179C209.548 67.2939 208.202 67.0482 206.843 66.8276C205.484 66.6071 203.935 66.3361 203.935 64.7231C203.935 63.4251 205.122 62.543 206.868 62.543C208.615 62.543 209.739 63.4188 209.821 64.8365H209.345C209.269 63.6771 208.354 62.9903 206.856 62.9903C205.357 62.9903 204.411 63.6771 204.411 64.7105C204.411 65.9707 205.605 66.1408 206.951 66.3614C208.399 66.6008 210.037 66.8969 210.037 68.7116C210.037 70.123 208.767 71.0556 206.919 71.0556C205.071 71.0556 203.903 70.1482 203.77 68.6801Z" fill="#232773"/>
<path d="M219.002 62.6943L214.792 71.6165C213.992 73.3115 213.281 73.7903 211.96 73.7903H211.325V73.3367H211.96C213.097 73.3367 213.655 72.9901 214.373 71.4464L214.868 70.4067L210.988 62.6943H211.528L215.103 69.89L218.481 62.6943H219.002Z" fill="#232773"/>
<path d="M219.906 68.6801H220.389C220.516 69.9025 221.506 70.6082 223.062 70.6082C224.618 70.6082 225.685 69.8773 225.685 68.7179C225.685 67.2939 224.339 67.0482 222.98 66.8276C221.621 66.6071 220.071 66.3361 220.071 64.7231C220.071 63.4251 221.259 62.543 222.999 62.543C224.739 62.543 225.875 63.4188 225.952 64.8365H225.482C225.405 63.6771 224.491 62.9903 222.992 62.9903C221.494 62.9903 220.548 63.6771 220.548 64.7105C220.548 65.9707 221.741 66.1408 223.088 66.3614C224.535 66.6008 226.174 66.8969 226.174 68.7116C226.174 70.123 224.904 71.0556 223.056 71.0556C221.208 71.0556 220.033 70.1482 219.906 68.6801Z" fill="#232773"/>
<path d="M232.475 70.4317V70.8979H231.389C231.052 70.9248 230.712 70.8775 230.395 70.7594C230.078 70.6413 229.791 70.4554 229.555 70.2147C229.318 69.9741 229.138 69.6847 229.027 69.3672C228.916 69.0497 228.877 68.7118 228.913 68.3775V63.1351H227.008V62.7067H228.913V60.2871H229.402V62.7067H232.418V63.1351H229.414V68.3838C229.384 68.6574 229.415 68.9343 229.506 69.1943C229.597 69.4544 229.745 69.6911 229.94 69.8872C230.134 70.0833 230.371 70.2339 230.631 70.3281C230.892 70.4223 231.17 70.4577 231.447 70.4317H232.475Z" fill="#232773"/>
<path d="M241.537 66.9412H233.828C233.826 67.4196 233.919 67.8937 234.103 68.336C234.287 68.7783 234.557 69.18 234.898 69.5176C235.24 69.8553 235.646 70.1223 236.092 70.3031C236.538 70.4838 237.017 70.5747 237.499 70.5706C238.182 70.579 238.854 70.393 239.435 70.0346C240.016 69.6762 240.481 69.1603 240.775 68.548H241.309C241.002 69.2988 240.474 69.9407 239.795 70.3902C239.115 70.8397 238.315 71.0759 237.499 71.0683C236.39 71.026 235.34 70.559 234.571 69.7654C233.801 68.9719 233.371 67.9134 233.371 66.812C233.371 65.7107 233.801 64.6522 234.571 63.8586C235.34 63.065 236.39 62.5981 237.499 62.5557C238.048 62.5525 238.592 62.6604 239.097 62.8727C239.603 63.0851 240.059 63.3975 240.439 63.7908C240.819 64.1841 241.114 64.6502 241.306 65.1604C241.498 65.6707 241.583 66.2144 241.556 66.7585C241.544 66.79 241.544 66.8782 241.537 66.9412ZM233.835 66.4812H241.067C241.054 65.5526 240.672 64.6667 240.003 64.0165C239.335 63.3663 238.435 63.0043 237.499 63.0094C236.552 62.9973 235.637 63.3541 234.952 64.0032C234.267 64.6523 233.866 65.5419 233.835 66.4812Z" fill="#232773"/>
<path d="M255.517 65.7192V70.8923H255.041V65.8515C255.041 64.1314 254.108 63.0098 252.685 63.0098C251.047 63.0098 249.904 64.27 249.891 66.1162V70.9112H249.408V65.8704C249.408 64.1314 248.488 63.0287 247.053 63.0287C245.408 63.0287 244.271 64.2889 244.258 66.1351V70.9301H243.77V62.7389H244.157L244.239 64.4086C244.483 63.8534 244.888 63.3829 245.403 63.0573C245.918 62.7318 246.519 62.5661 247.129 62.5813C247.746 62.5693 248.348 62.7728 248.83 63.1562C249.312 63.5397 249.642 64.0789 249.764 64.6796C249.963 64.0536 250.359 63.5076 250.894 63.1219C251.429 62.7362 252.075 62.5312 252.736 62.5372C254.412 62.5372 255.517 63.8163 255.517 65.7192Z" fill="#232773"/>
<path d="M112.032 30.3328V26.3632C111.969 24.014 110.985 21.7818 109.288 20.1421C107.591 18.5024 105.316 17.5849 102.948 17.5849C100.58 17.5849 98.3047 18.5024 96.608 20.1421C94.9112 21.7818 93.9267 24.014 93.8641 26.3632V34.2709C93.8641 34.9678 93.5851 35.6361 93.0885 36.1289C92.5919 36.6216 91.9184 36.8984 91.2161 36.8984C90.5138 36.8984 89.8403 36.6216 89.3437 36.1289C88.8471 35.6361 88.5681 34.9678 88.5681 34.2709V20.6546C88.4728 15.2383 86.2375 10.0758 82.3436 6.27891C78.4496 2.48203 73.2087 0.354495 67.7493 0.354495C62.2899 0.354495 57.049 2.48203 53.155 6.27891C49.2611 10.0758 47.0258 15.2383 46.9305 20.6546V34.2709C46.9305 34.9678 46.6515 35.6361 46.1549 36.1289C45.6583 36.6216 44.9848 36.8984 44.2825 36.8984C43.5802 36.8984 42.9067 36.6216 42.4101 36.1289C41.9135 35.6361 41.6345 34.9678 41.6345 34.2709V20.6546C41.6345 15.1766 39.4414 9.92306 35.5377 6.04958C31.634 2.1761 26.3395 0 20.8188 0C15.2982 0 10.0036 2.1761 6.09994 6.04958C2.19625 9.92306 0.00317526 15.1766 0.00317526 20.6546V46.0348C-0.0289019 47.2386 0.182333 48.4365 0.624415 49.5579C1.0665 50.6793 1.73047 51.7015 2.57715 52.5641C3.42384 53.4267 4.43608 54.1124 5.55415 54.5805C6.67222 55.0487 7.87347 55.2899 9.087 55.2899C10.3005 55.2899 11.5018 55.0487 12.6199 54.5805C13.7379 54.1124 14.7502 53.4267 15.5969 52.5641C16.4435 51.7015 17.1075 50.6793 17.5496 49.5579C17.9917 48.4365 18.2029 47.2386 18.1708 46.0348V20.6546C18.1708 19.9577 18.4498 19.2894 18.9464 18.7966C19.443 18.3039 20.1165 18.0271 20.8188 18.0271C21.5211 18.0271 22.1946 18.3039 22.6912 18.7966C23.1878 19.2894 23.4668 19.9577 23.4668 20.6546V34.2709C23.4668 39.7489 25.6599 45.0024 29.5636 48.8759C33.4673 52.7494 38.7618 54.9255 44.2825 54.9255C49.8031 54.9255 55.0977 52.7494 59.0014 48.8759C62.9051 45.0024 65.0981 39.7489 65.0981 34.2709V20.6546C65.1315 19.9791 65.4253 19.3423 65.9189 18.876C66.4124 18.4096 67.0678 18.1495 67.7493 18.1495C68.4308 18.1495 69.0862 18.4096 69.5797 18.876C70.0733 19.3423 70.3671 19.9791 70.4005 20.6546V34.2709C70.395 37.2168 71.0259 40.1296 72.2505 42.8132C73.4752 45.4967 75.2652 47.8887 77.5 49.828C79.7349 51.7673 82.3625 53.2088 85.2061 54.0555C88.0497 54.9022 91.0431 55.1344 93.9848 54.7365V64.3454C93.9848 65.0423 93.7058 65.7106 93.2092 66.2034C92.7126 66.6961 92.0391 66.9729 91.3368 66.9729C90.6345 66.9729 89.961 66.6961 89.4644 66.2034C88.9678 65.7106 88.6888 65.0423 88.6888 64.3454V63.3751C88.7209 62.1714 88.5096 60.9735 88.0675 59.8521C87.6255 58.7307 86.9615 57.7085 86.1148 56.8458C85.2681 55.9832 84.2559 55.2976 83.1378 54.8294C82.0197 54.3613 80.8185 54.1201 79.6049 54.1201C78.3914 54.1201 77.1902 54.3613 76.0721 54.8294C74.954 55.2976 73.9418 55.9832 73.0951 56.8458C72.2484 57.7085 71.5844 58.7307 71.1424 59.8521C70.7003 60.9735 70.489 62.1714 70.5211 63.3751V64.3454C70.5211 69.8234 72.7142 75.0769 76.6179 78.9504C80.5216 82.8239 85.8161 85 91.3368 85C96.8574 85 102.152 82.8239 106.056 78.9504C109.959 75.0769 112.152 69.8234 112.152 64.3454V31.7443C112.148 31.2715 112.108 30.7997 112.032 30.3328Z" fill="#232773"/>
<path d="M57.4034 73.4884C62.422 73.4884 66.4904 69.4515 66.4904 64.4718C66.4904 59.492 62.422 55.4551 57.4034 55.4551C52.3848 55.4551 48.3164 59.492 48.3164 64.4718C48.3164 69.4515 52.3848 73.4884 57.4034 73.4884Z" fill="#6EC531"/>
</svg>
